<svg xmlns="http://www.w3.org/2000/svg" viewBox="0 0 900 600">
  <rect width="900" height="600" fill="#bf0a30"/>
  <rect y="46.15" width="900" height="46.15" fill="#fff"/>
  <rect y="138.45" width="900" height="46.15" fill="#fff"/>
  <rect y="230.75" width="900" height="46.15" fill="#fff"/>
  <rect y="323.05" width="900" height="46.15" fill="#fff"/>
  <rect y="415.35" width="900" height="46.15" fill="#fff"/>
  <rect y="507.65" width="900" height="46.15" fill="#fff"/>
  <rect width="346.15" height="323.05" fill="#002868"/>
  <g fill="#fff">
    <g id="s3">
      <g id="s4">
        <g id="s5">
          <g id="s6">
            <path id="s" d="M16,12.2 19.5,22 11.4,16.2 20.6,16.2 12.5,22z"/>
            <use href="#s" y="26"/>
            <use href="#s" y="52"/>
            <use href="#s" y="78"/>
            <use href="#s" y="104"/>
            <use href="#s" y="130"/>
          </g>
          <use href="#s6" x="26"/>
        </g>
        <use href="#s5" x="52"/>
      </g>
      <use href="#s4" x="104"/>
    </g>
    <use href="#s3" x="208"/>
    <use href="#s6" x="26" y="26"/>
    <use href="#s5" x="52" y="26"/>
    <use href="#s4" x="104" y="26"/>
    <use href="#s3" x="208" y="26"/>
    <use href="#s6" x="26" y="52"/>
    <use href="#s5" x="52" y="52"/>
    <use href="#s4" x="104" y="52"/>
    <use href="#s3" x="208" y="52"/>
    <use href="#s6" x="26" y="78"/>
    <use href="#s5" x="52" y="78"/>
    <use href="#s4" x="104" y="78"/>
    <use href="#s3" x="208" y="78"/>
    <use href="#s6" x="26" y="104"/>
    <use href="#s5" x="52" y="104"/>
    <use href="#s4" x="104" y="104"/>
    <use href="#s3" x="208" y="104"/>
  </g>
</svg> 